<svg xmlns="http://www.w3.org/2000/svg" xmlns:xlink="http://www.w3.org/1999/xlink" width="42" zoomAndPan="magnify" viewBox="0 0 31.5 31.499999" height="42" preserveAspectRatio="xMidYMid meet" version="1.2"><defs><clipPath id="0fc584c68f"><path d="M 12.238281 9.300781 L 18.882812 9.300781 L 18.882812 21.851562 L 12.238281 21.851562 Z M 12.238281 9.300781 "/></clipPath></defs><g id="43a4b2b4d1"><g clip-rule="nonzero" clip-path="url(#0fc584c68f)"><path style=" stroke:none;fill-rule:nonzero;fill:#004aad;fill-opacity:1;" d="M 18.214844 9.855469 C 18.027344 9.671875 17.804688 9.53125 17.554688 9.441406 C 17.3125 9.347656 17.035156 9.304688 16.730469 9.304688 C 16.234375 9.304688 15.742188 9.382812 15.273438 9.542969 L 13.808594 10.039062 C 12.765625 10.382812 12.238281 11.003906 12.238281 11.890625 C 12.238281 12.359375 12.351562 12.738281 12.585938 13.015625 L 12.59375 13.027344 C 12.945312 13.445312 13.511719 13.605469 14.039062 13.445312 L 15 13.144531 L 15 19.914062 C 15 20.59375 15.175781 21.074219 15.523438 21.335938 C 15.855469 21.582031 16.355469 21.703125 17.054688 21.703125 C 17.371094 21.703125 17.667969 21.683594 17.941406 21.640625 L 17.945312 21.640625 C 18.414062 21.574219 18.765625 21.167969 18.765625 20.695312 L 18.765625 11.339844 C 18.765625 10.722656 18.582031 10.226562 18.214844 9.855469 Z M 18.238281 20.691406 C 18.238281 20.90625 18.082031 21.085938 17.871094 21.117188 L 17.863281 21.121094 C 17.617188 21.15625 17.34375 21.171875 17.054688 21.171875 C 16.480469 21.171875 16.074219 21.085938 15.839844 20.910156 C 15.632812 20.757812 15.527344 20.417969 15.527344 19.914062 L 15.527344 12.878906 C 15.527344 12.773438 15.476562 12.671875 15.394531 12.609375 C 15.335938 12.566406 15.265625 12.546875 15.195312 12.546875 C 15.160156 12.546875 15.128906 12.550781 15.09375 12.5625 L 13.878906 12.941406 C 13.558594 13.039062 13.210938 12.941406 12.996094 12.679688 L 12.984375 12.667969 C 12.839844 12.488281 12.765625 12.230469 12.765625 11.890625 C 12.765625 11.25 13.160156 10.808594 13.976562 10.539062 L 15.445312 10.039062 C 15.859375 9.898438 16.292969 9.828125 16.730469 9.828125 C 16.972656 9.828125 17.1875 9.863281 17.375 9.929688 C 17.550781 9.996094 17.710938 10.097656 17.839844 10.226562 C 18.109375 10.496094 18.238281 10.859375 18.238281 11.335938 Z M 18.238281 20.691406 "/></g></g></svg>