<svg xmlns="http://www.w3.org/2000/svg" xmlns:xlink="http://www.w3.org/1999/xlink" width="42" zoomAndPan="magnify" viewBox="0 0 31.5 31.499999" height="42" preserveAspectRatio="xMidYMid meet" version="1.2"><defs><clipPath id="dc4d7c22d6"><path d="M 10.933594 9.300781 L 19.792969 9.300781 L 19.792969 21.851562 L 10.933594 21.851562 Z M 10.933594 9.300781 "/></clipPath></defs><g id="db9c88c0f6"><g clip-rule="nonzero" clip-path="url(#dc4d7c22d6)"><path style=" stroke:none;fill-rule:nonzero;fill:#004aad;fill-opacity:1;" d="M 19.679688 19.070312 L 19.679688 19.0625 C 19.542969 18.652344 19.164062 18.375 18.730469 18.375 L 15.519531 18.375 L 17.371094 16.890625 C 18.894531 15.675781 19.664062 14.367188 19.664062 12.996094 C 19.664062 12.484375 19.5625 11.996094 19.367188 11.546875 C 19.164062 11.09375 18.863281 10.695312 18.464844 10.363281 C 18.070312 10.035156 17.578125 9.773438 16.996094 9.585938 C 16.417969 9.398438 15.746094 9.304688 14.996094 9.304688 C 13.9375 9.304688 13.078125 9.472656 12.441406 9.804688 C 11.75 10.164062 11.394531 10.722656 11.394531 11.464844 C 11.394531 11.804688 11.476562 12.113281 11.636719 12.371094 L 11.640625 12.378906 C 11.917969 12.828125 12.480469 12.988281 12.957031 12.753906 C 13.101562 12.679688 13.261719 12.609375 13.433594 12.542969 C 13.792969 12.402344 14.203125 12.332031 14.660156 12.332031 C 15.097656 12.332031 15.4375 12.414062 15.667969 12.578125 C 15.875 12.730469 15.976562 12.921875 15.976562 13.183594 C 15.976562 13.289062 15.953125 13.398438 15.910156 13.519531 C 15.863281 13.640625 15.78125 13.78125 15.667969 13.933594 C 15.542969 14.097656 15.378906 14.285156 15.179688 14.492188 C 14.976562 14.703125 14.714844 14.941406 14.402344 15.203125 L 11.859375 17.382812 C 11.628906 17.574219 11.417969 17.828125 11.230469 18.140625 C 11.035156 18.46875 10.933594 18.871094 10.933594 19.335938 C 10.933594 19.769531 11.023438 20.15625 11.195312 20.480469 L 11.203125 20.488281 C 11.476562 21.003906 12.019531 21.324219 12.613281 21.324219 L 18.46875 21.324219 C 18.855469 21.324219 19.179688 21.207031 19.421875 20.96875 C 19.671875 20.726562 19.792969 20.347656 19.792969 19.832031 C 19.792969 19.5625 19.757812 19.304688 19.679688 19.070312 Z M 19.066406 20.601562 C 18.917969 20.746094 18.722656 20.816406 18.46875 20.816406 L 12.613281 20.816406 C 12.210938 20.816406 11.839844 20.597656 11.652344 20.246094 L 11.648438 20.242188 C 11.515625 19.988281 11.449219 19.683594 11.449219 19.335938 C 11.449219 18.964844 11.523438 18.652344 11.671875 18.402344 C 11.828125 18.140625 12 17.929688 12.183594 17.777344 L 14.738281 15.59375 C 15.0625 15.320312 15.335938 15.070312 15.550781 14.847656 C 15.765625 14.625 15.945312 14.421875 16.078125 14.242188 C 16.222656 14.050781 16.328125 13.867188 16.390625 13.695312 C 16.457031 13.519531 16.492188 13.347656 16.492188 13.179688 C 16.492188 12.757812 16.3125 12.40625 15.96875 12.160156 C 15.648438 11.933594 15.210938 11.816406 14.667969 11.816406 C 14.144531 11.816406 13.667969 11.902344 13.253906 12.066406 C 13.070312 12.140625 12.894531 12.214844 12.738281 12.292969 C 12.5 12.414062 12.21875 12.332031 12.082031 12.109375 L 12.078125 12.105469 C 11.96875 11.921875 11.914062 11.714844 11.914062 11.464844 C 11.914062 10.921875 12.164062 10.527344 12.679688 10.257812 C 13.238281 9.96875 14.019531 9.820312 14.996094 9.820312 C 15.691406 9.820312 16.3125 9.90625 16.839844 10.074219 C 17.359375 10.242188 17.796875 10.472656 18.136719 10.757812 C 18.476562 11.039062 18.730469 11.375 18.898438 11.753906 C 19.070312 12.136719 19.152344 12.558594 19.152344 13 C 19.152344 14.207031 18.445312 15.382812 17.050781 16.496094 L 15.117188 18.046875 C 14.957031 18.175781 14.898438 18.382812 14.964844 18.574219 C 15.035156 18.765625 15.207031 18.890625 15.414062 18.890625 L 18.730469 18.890625 C 18.945312 18.890625 19.128906 19.023438 19.195312 19.222656 L 19.195312 19.230469 C 19.257812 19.414062 19.285156 19.617188 19.285156 19.832031 C 19.285156 20.203125 19.210938 20.460938 19.066406 20.601562 Z M 19.066406 20.601562 "/></g></g></svg>