<svg xmlns="http://www.w3.org/2000/svg" xmlns:xlink="http://www.w3.org/1999/xlink" width="42" zoomAndPan="magnify" viewBox="0 0 31.5 31.499999" height="42" preserveAspectRatio="xMidYMid meet" version="1.2"><defs><clipPath id="ac281ea50d"><path d="M 10.988281 9.300781 L 19.847656 9.300781 L 19.847656 21.851562 L 10.988281 21.851562 Z M 10.988281 9.300781 "/></clipPath></defs><g id="8ec24dafe9"><g clip-rule="nonzero" clip-path="url(#ac281ea50d)"><path style=" stroke:none;fill-rule:nonzero;fill:#004aad;fill-opacity:1;" d="M 11.542969 12.234375 C 11.808594 12.652344 12.359375 12.816406 12.820312 12.613281 C 12.957031 12.550781 13.109375 12.492188 13.273438 12.441406 C 13.621094 12.335938 14.039062 12.28125 14.507812 12.28125 C 15.011719 12.28125 15.382812 12.363281 15.617188 12.527344 C 15.828125 12.671875 15.925781 12.847656 15.925781 13.078125 C 15.925781 13.425781 15.804688 13.824219 14.871094 13.824219 L 13.589844 13.824219 C 13.167969 13.824219 12.796875 14.105469 12.683594 14.503906 L 12.683594 14.515625 C 12.621094 14.734375 12.589844 15 12.589844 15.300781 C 12.589844 15.59375 12.625 15.851562 12.695312 16.070312 L 12.695312 16.078125 C 12.824219 16.476562 13.1875 16.746094 13.609375 16.746094 L 14.871094 16.746094 C 15.519531 16.746094 15.8125 16.863281 15.941406 16.964844 C 16.113281 17.09375 16.195312 17.289062 16.195312 17.558594 C 16.195312 17.832031 16.089844 18.035156 15.855469 18.207031 C 15.605469 18.390625 15.191406 18.484375 14.632812 18.484375 C 14.019531 18.484375 13.519531 18.398438 13.148438 18.226562 C 12.957031 18.136719 12.785156 18.050781 12.632812 17.964844 C 12.183594 17.71875 11.613281 17.847656 11.316406 18.265625 C 11.300781 18.289062 11.28125 18.308594 11.269531 18.335938 C 11.082031 18.617188 10.988281 18.949219 10.988281 19.328125 C 10.988281 19.972656 11.359375 20.503906 12.085938 20.902344 C 12.777344 21.277344 13.753906 21.460938 15.070312 21.460938 C 15.746094 21.460938 16.378906 21.382812 16.953125 21.222656 C 17.53125 21.0625 18.042969 20.828125 18.464844 20.519531 C 18.894531 20.207031 19.234375 19.820312 19.476562 19.375 C 19.722656 18.925781 19.847656 18.414062 19.847656 17.851562 C 19.847656 17.433594 19.792969 17.066406 19.6875 16.75 C 19.582031 16.429688 19.433594 16.148438 19.246094 15.90625 C 19.058594 15.667969 18.84375 15.464844 18.601562 15.300781 C 18.507812 15.238281 18.40625 15.179688 18.304688 15.125 C 18.582031 14.925781 18.835938 14.679688 19.054688 14.390625 C 19.398438 13.9375 19.574219 13.386719 19.574219 12.75 C 19.574219 11.699219 19.171875 10.847656 18.382812 10.226562 C 17.609375 9.617188 16.484375 9.308594 15.035156 9.308594 C 13.945312 9.308594 13.058594 9.460938 12.394531 9.757812 C 11.675781 10.082031 11.296875 10.628906 11.296875 11.332031 C 11.296875 11.671875 11.378906 11.972656 11.539062 12.226562 L 11.539062 12.230469 Z M 19.023438 19.132812 C 18.820312 19.507812 18.527344 19.832031 18.160156 20.101562 C 17.789062 20.371094 17.335938 20.582031 16.816406 20.726562 C 16.285156 20.871094 15.703125 20.945312 15.070312 20.945312 C 13.859375 20.945312 12.9375 20.777344 12.335938 20.449219 C 11.777344 20.140625 11.503906 19.773438 11.503906 19.328125 C 11.503906 19.050781 11.570312 18.820312 11.699219 18.625 C 11.710938 18.605469 11.722656 18.589844 11.734375 18.570312 C 11.832031 18.4375 11.984375 18.363281 12.144531 18.363281 C 12.226562 18.363281 12.308594 18.382812 12.382812 18.425781 C 12.546875 18.511719 12.730469 18.605469 12.929688 18.699219 C 13.371094 18.898438 13.941406 19.003906 14.632812 19.003906 C 15.316406 19.003906 15.8125 18.878906 16.160156 18.625 C 16.527344 18.355469 16.710938 17.996094 16.710938 17.5625 C 16.710938 17.125 16.554688 16.785156 16.253906 16.554688 C 15.96875 16.332031 15.515625 16.226562 14.867188 16.226562 L 13.605469 16.226562 C 13.414062 16.226562 13.242188 16.105469 13.183594 15.925781 L 13.183594 15.917969 C 13.128906 15.75 13.105469 15.542969 13.105469 15.304688 C 13.105469 15.046875 13.128906 14.828125 13.175781 14.652344 L 13.179688 14.644531 C 13.226562 14.464844 13.394531 14.339844 13.585938 14.339844 L 14.867188 14.339844 C 16.230469 14.339844 16.4375 13.550781 16.4375 13.082031 C 16.4375 12.683594 16.253906 12.347656 15.90625 12.105469 C 15.578125 11.878906 15.121094 11.765625 14.503906 11.765625 C 13.980469 11.765625 13.511719 11.828125 13.113281 11.949219 C 12.929688 12.007812 12.757812 12.070312 12.605469 12.140625 C 12.375 12.242188 12.105469 12.164062 11.972656 11.960938 L 11.96875 11.953125 C 11.863281 11.78125 11.808594 11.582031 11.808594 11.335938 C 11.808594 10.828125 12.0625 10.476562 12.605469 10.234375 C 13.199219 9.964844 14.015625 9.828125 15.027344 9.828125 C 16.359375 9.828125 17.375 10.097656 18.054688 10.636719 C 18.722656 11.167969 19.050781 11.859375 19.050781 12.753906 C 19.050781 13.285156 18.917969 13.71875 18.640625 14.082031 C 18.429688 14.355469 18.191406 14.582031 17.925781 14.757812 C 17.789062 14.847656 17.714844 14.996094 17.722656 15.164062 C 17.734375 15.328125 17.828125 15.46875 17.972656 15.542969 C 18.089844 15.601562 18.203125 15.667969 18.308594 15.738281 C 18.503906 15.871094 18.679688 16.035156 18.832031 16.230469 C 18.984375 16.425781 19.101562 16.65625 19.191406 16.917969 C 19.277344 17.183594 19.320312 17.496094 19.320312 17.855469 C 19.328125 18.328125 19.226562 18.761719 19.023438 19.132812 Z M 19.023438 19.132812 "/></g></g></svg>