<svg xmlns="http://www.w3.org/2000/svg" xmlns:xlink="http://www.w3.org/1999/xlink" width="42" zoomAndPan="magnify" viewBox="0 0 31.5 31.499999" height="42" preserveAspectRatio="xMidYMid meet" version="1.2"><defs><clipPath id="6e0c7b8b1f"><path d="M 9.941406 9.300781 L 21.015625 9.300781 L 21.015625 21.851562 L 9.941406 21.851562 Z M 9.941406 9.300781 "/></clipPath></defs><g id="ad0634d5c0"><g clip-rule="nonzero" clip-path="url(#6e0c7b8b1f)"><path style=" stroke:none;fill-rule:nonzero;fill:#004aad;fill-opacity:1;" d="M 15.882812 12.546875 C 15.78125 12.546875 15.679688 12.601562 15.625 12.6875 L 13.519531 15.90625 C 13.425781 16.054688 13.414062 16.238281 13.5 16.390625 C 13.582031 16.542969 13.742188 16.640625 13.914062 16.640625 L 15.722656 16.640625 C 15.984375 16.640625 16.195312 16.425781 16.195312 16.167969 L 16.195312 12.859375 C 16.195312 12.6875 16.058594 12.546875 15.882812 12.546875 Z M 15.671875 16.113281 L 14.011719 16.113281 L 15.671875 13.574219 Z M 20.886719 16.84375 L 20.886719 16.835938 C 20.742188 16.40625 20.335938 16.113281 19.878906 16.113281 L 19.175781 16.113281 L 19.175781 11.328125 C 19.175781 10.945312 19.101562 10.617188 18.953125 10.347656 C 18.804688 10.082031 18.601562 9.867188 18.347656 9.710938 C 18.109375 9.566406 17.835938 9.457031 17.535156 9.394531 C 17.246094 9.335938 16.945312 9.304688 16.636719 9.304688 C 16.371094 9.304688 16.074219 9.328125 15.753906 9.382812 L 15.742188 9.382812 C 15.179688 9.476562 14.679688 9.78125 14.332031 10.242188 L 10.414062 15.496094 C 10.226562 15.742188 10.097656 16.035156 10.035156 16.363281 C 9.972656 16.671875 9.941406 16.953125 9.941406 17.210938 C 9.941406 17.695312 10.066406 18.113281 10.304688 18.453125 L 10.308594 18.464844 C 10.652344 18.949219 11.214844 19.238281 11.820312 19.238281 L 15.5 19.238281 L 15.5 20.039062 C 15.5 20.382812 15.542969 20.652344 15.636719 20.863281 C 15.730469 21.089844 15.875 21.265625 16.066406 21.390625 C 16.246094 21.507812 16.464844 21.582031 16.71875 21.613281 C 16.945312 21.636719 17.203125 21.652344 17.488281 21.652344 C 17.753906 21.652344 18.035156 21.628906 18.328125 21.582031 L 18.335938 21.578125 C 18.824219 21.5 19.175781 21.085938 19.175781 20.59375 L 19.175781 19.242188 L 19.617188 19.242188 C 20.011719 19.242188 20.347656 19.117188 20.613281 18.867188 C 20.882812 18.613281 21.015625 18.203125 21.015625 17.652344 C 21.015625 17.367188 20.972656 17.097656 20.886719 16.84375 Z M 20.25 18.480469 C 20.082031 18.636719 19.875 18.714844 19.613281 18.714844 L 19.175781 18.714844 C 18.882812 18.714844 18.648438 18.949219 18.648438 19.238281 L 18.648438 20.59375 C 18.648438 20.824219 18.484375 21.019531 18.253906 21.058594 L 18.246094 21.058594 C 17.980469 21.101562 17.726562 21.125 17.488281 21.125 C 17.222656 21.125 16.984375 21.113281 16.78125 21.085938 C 16.605469 21.066406 16.460938 21.019531 16.351562 20.949219 C 16.25 20.882812 16.171875 20.785156 16.117188 20.65625 C 16.054688 20.511719 16.023438 20.304688 16.023438 20.039062 L 16.023438 18.714844 L 11.820312 18.714844 C 11.386719 18.714844 10.984375 18.503906 10.738281 18.160156 L 10.734375 18.152344 C 10.554688 17.898438 10.46875 17.589844 10.46875 17.210938 C 10.46875 16.988281 10.496094 16.738281 10.546875 16.464844 C 10.597656 16.214844 10.691406 15.996094 10.832031 15.8125 L 14.753906 10.558594 C 15.015625 10.207031 15.398438 9.972656 15.828125 9.902344 L 15.832031 9.898438 C 16.128906 9.851562 16.398438 9.828125 16.636719 9.828125 C 16.90625 9.828125 17.171875 9.855469 17.425781 9.90625 C 17.667969 9.957031 17.882812 10.042969 18.070312 10.160156 C 18.25 10.269531 18.386719 10.414062 18.492188 10.601562 C 18.597656 10.789062 18.648438 11.035156 18.648438 11.328125 L 18.648438 16.113281 C 18.648438 16.40625 18.882812 16.640625 19.171875 16.640625 L 19.878906 16.640625 C 20.109375 16.640625 20.3125 16.785156 20.386719 17.003906 L 20.390625 17.007812 C 20.457031 17.210938 20.492188 17.421875 20.492188 17.648438 C 20.492188 18.050781 20.410156 18.332031 20.25 18.480469 Z M 20.25 18.480469 "/></g></g></svg>