<svg width="157" height="20" viewBox="0 0 157 20" fill="none" xmlns="http://www.w3.org/2000/svg">
<path d="M0.125 4.58594V1.53906H14.457V4.58594H9.13672V19H5.45703V4.58594H0.125ZM22.7422 19.2578C21.3984 19.2578 20.2422 18.9844 19.2734 18.4375C18.3047 17.8906 17.5586 17.1133 17.0352 16.1055C16.5117 15.0898 16.25 13.8906 16.25 12.5078C16.25 11.1641 16.5078 9.98438 17.0234 8.96875C17.5469 7.95312 18.2812 7.16016 19.2266 6.58984C20.1719 6.01953 21.2852 5.73438 22.5664 5.73438C23.7227 5.73438 24.7656 5.98047 25.6953 6.47266C26.6328 6.96484 27.375 7.70312 27.9219 8.6875C28.4766 9.67188 28.7539 10.9062 28.7539 12.3906V13.375H19.8242C19.8633 14.3672 20.1523 15.1445 20.6914 15.707C21.2305 16.2695 21.9336 16.5508 22.8008 16.5508C23.4023 16.5508 23.918 16.4219 24.3477 16.1641C24.7852 15.9062 25.0977 15.5312 25.2852 15.0391L28.6367 15.2617C28.3789 16.4648 27.7344 17.4336 26.7031 18.168C25.6797 18.8945 24.3594 19.2578 22.7422 19.2578ZM19.8477 11.1367H25.2734C25.1875 10.3086 24.9219 9.65234 24.4766 9.16797C24.0312 8.68359 23.4062 8.44141 22.6016 8.44141C21.7891 8.44141 21.1445 8.69531 20.668 9.20312C20.1992 9.70312 19.9258 10.3477 19.8477 11.1367ZM34.7773 1.53906V19H31.1445V1.53906H34.7773ZM43.5898 19.2578C42.2695 19.2578 41.125 18.9766 40.1562 18.4141C39.1953 17.8438 38.4531 17.0547 37.9297 16.0469C37.4141 15.0312 37.1562 13.8516 37.1562 12.5078C37.1562 11.1562 37.4141 9.97266 37.9297 8.95703C38.4531 7.94141 39.1953 7.15234 40.1562 6.58984C41.125 6.01953 42.2695 5.73438 43.5898 5.73438C44.918 5.73438 46.0625 6.01953 47.0234 6.58984C47.9922 7.15234 48.7344 7.94141 49.25 8.95703C49.7734 9.97266 50.0352 11.1562 50.0352 12.5078C50.0352 13.8516 49.7734 15.0312 49.25 16.0469C48.7344 17.0547 47.9922 17.8438 47.0234 18.4141C46.0625 18.9766 44.918 19.2578 43.5898 19.2578ZM40.8477 12.4844C40.8477 13.625 41.0781 14.5664 41.5391 15.3086C42 16.0508 42.6875 16.4219 43.6016 16.4219C44.5078 16.4219 45.1914 16.0508 45.6523 15.3086C46.1133 14.5664 46.3438 13.625 46.3438 12.4844C46.3438 11.3438 46.1133 10.4062 45.6523 9.67188C45.1914 8.9375 44.5078 8.57031 43.6016 8.57031C42.6875 8.57031 42 8.9375 41.5391 9.67188C41.0781 10.4062 40.8477 11.3438 40.8477 12.4844ZM51.8281 4.58594V1.53906H66.1602V4.58594H60.8398V19H57.1602V4.58594H51.8281ZM68.4805 19V5.89844H72.1133V19H68.4805ZM70.2969 4.22266C69.7578 4.22266 69.293 4.04297 68.9023 3.68359C68.5195 3.32422 68.3281 2.89062 68.3281 2.38281C68.3281 1.875 68.5195 1.44531 68.9023 1.09375C69.293 0.734375 69.7578 0.554688 70.2969 0.554688C70.8359 0.554688 71.2969 0.734375 71.6797 1.09375C72.0703 1.44531 72.2656 1.875 72.2656 2.38281C72.2656 2.89062 72.0703 3.32422 71.6797 3.68359C71.2969 4.04297 70.8359 4.22266 70.2969 4.22266ZM75.0195 19V5.89844H78.4648V8.23047H78.6289C78.9023 7.45703 79.3594 6.84766 80 6.40234C80.6406 5.95703 81.4023 5.73438 82.2852 5.73438C83.1836 5.73438 83.9453 5.96094 84.5703 6.41406C85.2031 6.85938 85.6211 7.46484 85.8242 8.23047H85.9648C86.2383 7.47266 86.7227 6.86719 87.418 6.41406C88.1211 5.96094 88.9531 5.73438 89.9141 5.73438C91.1328 5.73438 92.125 6.12109 92.8906 6.89453C93.6641 7.66797 94.0508 8.76562 94.0508 10.1875V19H90.418V10.9141C90.418 10.1797 90.2227 9.63281 89.832 9.27344C89.4492 8.91406 88.9688 8.73438 88.3906 8.73438C87.7344 8.73438 87.2188 8.94531 86.8438 9.36719C86.4766 9.78125 86.293 10.3281 86.293 11.0078V19H82.7656V10.8203C82.7656 10.1875 82.582 9.68359 82.2148 9.30859C81.8555 8.92578 81.3789 8.73438 80.7852 8.73438C80.1758 8.73438 79.668 8.95703 79.2617 9.40234C78.8555 9.83984 78.6523 10.4219 78.6523 11.1484V19H75.0195ZM102.922 19.2578C101.578 19.2578 100.422 18.9844 99.4531 18.4375C98.4844 17.8906 97.7383 17.1133 97.2148 16.1055C96.6914 15.0898 96.4297 13.8906 96.4297 12.5078C96.4297 11.1641 96.6875 9.98438 97.2031 8.96875C97.7266 7.95312 98.4609 7.16016 99.4062 6.58984C100.352 6.01953 101.465 5.73438 102.746 5.73438C103.902 5.73438 104.945 5.98047 105.875 6.47266C106.812 6.96484 107.555 7.70312 108.102 8.6875C108.656 9.67188 108.934 10.9062 108.934 12.3906V13.375H100.004C100.043 14.3672 100.332 15.1445 100.871 15.707C101.41 16.2695 102.113 16.5508 102.98 16.5508C103.582 16.5508 104.098 16.4219 104.527 16.1641C104.965 15.9062 105.277 15.5312 105.465 15.0391L108.816 15.2617C108.559 16.4648 107.914 17.4336 106.883 18.168C105.859 18.8945 104.539 19.2578 102.922 19.2578ZM100.027 11.1367H105.453C105.367 10.3086 105.102 9.65234 104.656 9.16797C104.211 8.68359 103.586 8.44141 102.781 8.44141C101.969 8.44141 101.324 8.69531 100.848 9.20312C100.379 9.70312 100.105 10.3477 100.027 11.1367ZM114.957 1.53906V19H111.324V1.53906H114.957ZM123.828 19.2578C122.484 19.2578 121.328 18.9844 120.359 18.4375C119.391 17.8906 118.645 17.1133 118.121 16.1055C117.598 15.0898 117.336 13.8906 117.336 12.5078C117.336 11.1641 117.594 9.98438 118.109 8.96875C118.633 7.95312 119.367 7.16016 120.312 6.58984C121.258 6.01953 122.371 5.73438 123.652 5.73438C124.809 5.73438 125.852 5.98047 126.781 6.47266C127.719 6.96484 128.461 7.70312 129.008 8.6875C129.562 9.67188 129.84 10.9062 129.84 12.3906V13.375H120.91C120.949 14.3672 121.238 15.1445 121.777 15.707C122.316 16.2695 123.02 16.5508 123.887 16.5508C124.488 16.5508 125.004 16.4219 125.434 16.1641C125.871 15.9062 126.184 15.5312 126.371 15.0391L129.723 15.2617C129.465 16.4648 128.82 17.4336 127.789 18.168C126.766 18.8945 125.445 19.2578 123.828 19.2578ZM120.934 11.1367H126.359C126.273 10.3086 126.008 9.65234 125.562 9.16797C125.117 8.68359 124.492 8.44141 123.688 8.44141C122.875 8.44141 122.23 8.69531 121.754 9.20312C121.285 9.70312 121.012 10.3477 120.934 11.1367ZM143.105 9.63672L139.801 9.83594C139.707 9.42188 139.473 9.06641 139.098 8.76953C138.73 8.46484 138.23 8.3125 137.598 8.3125C137.035 8.3125 136.562 8.42969 136.18 8.66406C135.797 8.89844 135.605 9.21094 135.605 9.60156C135.605 9.91406 135.73 10.1797 135.98 10.3984C136.23 10.6172 136.656 10.793 137.258 10.9258L139.637 11.3945C142.152 11.8945 143.41 13.0742 143.41 14.9336C143.41 15.8008 143.16 16.5586 142.66 17.207C142.16 17.8555 141.473 18.3594 140.598 18.7188C139.723 19.0781 138.719 19.2578 137.586 19.2578C135.852 19.2578 134.473 18.8984 133.449 18.1797C132.426 17.4531 131.824 16.4648 131.645 15.2148L135.207 15.0273C135.449 16.1055 136.246 16.6445 137.598 16.6445C138.23 16.6445 138.742 16.5195 139.133 16.2695C139.523 16.0195 139.719 15.7031 139.719 15.3203C139.719 14.6719 139.16 14.2344 138.043 14.0078L135.781 13.5391C133.258 13.0312 131.996 11.7891 131.996 9.8125C131.996 8.54688 132.5 7.55078 133.508 6.82422C134.523 6.09766 135.867 5.73438 137.539 5.73438C139.195 5.73438 140.5 6.08594 141.453 6.78906C142.406 7.48438 142.957 8.43359 143.105 9.63672ZM156.582 9.63672L153.277 9.83594C153.184 9.42188 152.949 9.06641 152.574 8.76953C152.207 8.46484 151.707 8.3125 151.074 8.3125C150.512 8.3125 150.039 8.42969 149.656 8.66406C149.273 8.89844 149.082 9.21094 149.082 9.60156C149.082 9.91406 149.207 10.1797 149.457 10.3984C149.707 10.6172 150.133 10.793 150.734 10.9258L153.113 11.3945C155.629 11.8945 156.887 13.0742 156.887 14.9336C156.887 15.8008 156.637 16.5586 156.137 17.207C155.637 17.8555 154.949 18.3594 154.074 18.7188C153.199 19.0781 152.195 19.2578 151.062 19.2578C149.328 19.2578 147.949 18.8984 146.926 18.1797C145.902 17.4531 145.301 16.4648 145.121 15.2148L148.684 15.0273C148.926 16.1055 149.723 16.6445 151.074 16.6445C151.707 16.6445 152.219 16.5195 152.609 16.2695C153 16.0195 153.195 15.7031 153.195 15.3203C153.195 14.6719 152.637 14.2344 151.52 14.0078L149.258 13.5391C146.734 13.0312 145.473 11.7891 145.473 9.8125C145.473 8.54688 145.977 7.55078 146.984 6.82422C148 6.09766 149.344 5.73438 151.016 5.73438C152.672 5.73438 153.977 6.08594 154.93 6.78906C155.883 7.48438 156.434 8.43359 156.582 9.63672Z" fill="#284760"/>
</svg>
